<svg width="1505" height="699" viewBox="0 0 1505 699" fill="none" xmlns="http://www.w3.org/2000/svg">
<g clip-path="url(#clip0_3_67)">
<path d="M1505 -6H-1V587H1505V-6Z" fill="#000718"/>
<path d="M-1 211.03L34.7675 213.702C70.6919 216.707 142.227 222.049 213.919 240.413C285.611 258.777 357.146 290.163 428.838 306.19C500.529 322.217 572.064 323.552 644.07 312.868C715.919 302.183 788.081 280.146 859.93 266.123C931.936 252.099 1003.47 246.757 1075.16 236.74C1146.85 226.723 1218.39 212.032 1290.08 215.371C1361.77 218.71 1433.31 240.079 1469.23 250.43L1505 261.114V-6H1469.23C1433.31 -6 1361.77 -6 1290.08 -6C1218.39 -6 1146.85 -6 1075.16 -6C1003.47 -6 931.936 -6 859.93 -6C788.081 -6 715.919 -6 644.07 -6C572.064 -6 500.529 -6 428.838 -6C357.146 -6 285.611 -6 213.919 -6C142.227 -6 70.6919 -6 34.7675 -6H-1V211.03Z" fill="url(#paint0_linear_3_67)"/>
<path d="M716.234 578.443C716.234 629.35 684.874 675.566 633.905 709.102C582.945 742.633 512.486 763.405 434.608 763.405C356.73 763.405 286.271 742.633 235.311 709.102C184.342 675.566 152.982 629.35 152.982 578.443C152.982 527.535 184.342 481.319 235.311 447.783C286.271 414.253 356.73 393.481 434.608 393.481C512.486 393.481 582.945 414.253 633.905 447.783C684.874 481.319 716.234 527.535 716.234 578.443Z" stroke="url(#paint1_linear_3_67)" stroke-width="2"/>
</g>
<path d="M558.464 555.713C559.17 558.497 558.218 561.666 555.381 565.223C552.552 568.77 547.953 572.564 541.7 576.532C529.2 584.463 510.296 592.962 486.366 601.513C438.521 618.611 370.766 635.857 294.446 649.187C218.126 662.517 147.74 669.398 95.645 669.754C69.5893 669.933 48.1585 668.479 32.8647 665.402C25.2127 663.863 19.1598 661.929 14.8467 659.629C10.5217 657.323 8.10987 654.742 7.40336 651.959C6.69684 649.175 7.64874 646.006 10.4855 642.449C13.3144 638.902 17.9134 635.108 24.1674 631.14C36.6668 623.21 55.571 614.711 79.5011 606.159C127.346 589.061 195.101 571.815 271.421 558.485C347.741 545.155 418.127 538.274 470.222 537.918C496.278 537.739 517.708 539.194 533.002 542.27C540.654 543.809 546.707 545.743 551.02 548.043C555.345 550.349 557.757 552.93 558.464 555.713Z" stroke="url(#paint2_linear_3_67)" stroke-width="2"/>
<defs>
<linearGradient id="paint0_linear_3_67" x1="475.488" y1="-148.906" x2="621.048" y2="405.649" gradientUnits="userSpaceOnUse">
<stop stop-color="#112451"/>
<stop offset="1" stop-color="#000B26" stop-opacity="0"/>
</linearGradient>
<linearGradient id="paint1_linear_3_67" x1="434.608" y1="392.481" x2="419.821" y2="463.672" gradientUnits="userSpaceOnUse">
<stop stop-color="#112451"/>
<stop offset="1" stop-opacity="0"/>
</linearGradient>
<linearGradient id="paint2_linear_3_67" x1="271.175" y1="557.516" x2="273.433" y2="576.306" gradientUnits="userSpaceOnUse">
<stop stop-color="#112451"/>
<stop offset="1" stop-opacity="0"/>
</linearGradient>
<clipPath id="clip0_3_67">
<rect width="1506" height="593" fill="white" transform="translate(-1 -6)"/>
</clipPath>
</defs>
</svg>
