<svg width="501" height="501" viewBox="0 0 501 501" fill="none" xmlns="http://www.w3.org/2000/svg">
<path d="M137.07 34.8737C122.138 92.7206 172.575 204.322 241.15 210.848C241.853 203.905 240.952 196.894 238.516 190.355C236.081 183.815 232.176 177.923 227.103 173.131C227.103 173.131 338.594 206.313 337.046 350.101C366.308 345.387 393.791 332.982 416.682 314.154C420 315.813 392.681 446.881 315.035 466.237C315.035 466.237 180.317 444.78 152.223 377.753C152.223 377.753 207.526 392.574 239.823 377.753C236.947 349.216 182.972 320.237 129.217 278.207C116.382 268.934 105.759 256.935 98.1095 243.07C90.4602 229.206 85.9746 213.82 84.9746 198.018L120.037 220.802C120.037 220.802 73.8034 105.109 137.07 34.8737Z" fill="url(#paint0_radial_51_40)"/>
<defs>
<radialGradient id="paint0_radial_51_40" cx="0" cy="0" r="1" gradientUnits="userSpaceOnUse" gradientTransform="translate(235.219 272.344) rotate(59.37) scale(250.989 193.159)">
<stop stop-color="#1156FF"/>
<stop offset="1" stop-color="#1156FF"/>
</radialGradient>
</defs>
</svg>
